<?xml version="1.0" encoding="UTF-8" standalone="no"?>
<svg
   xmlns:dc="http://purl.org/dc/elements/1.1/"
   xmlns:cc="http://creativecommons.org/ns#"
   xmlns:rdf="http://www.w3.org/1999/02/22-rdf-syntax-ns#"
   xmlns:svg="http://www.w3.org/2000/svg"
   xmlns="http://www.w3.org/2000/svg"
   xmlns:sodipodi="http://sodipodi.sourceforge.net/DTD/sodipodi-0.dtd"
   xmlns:inkscape="http://www.inkscape.org/namespaces/inkscape"
   version="1.1"
   x="0px"
   y="0px"
   viewBox="0 0 47.966957 41.099998"
   xml:space="preserve"
   id="svg2"
   inkscape:version="0.91 r13725"
   sodipodi:docname="noun_Information Technology_1836759.svg"
   width="47.966957"
   height="41.099998"><metadata
     id="metadata24"><rdf:RDF><cc:Work
         rdf:about=""><dc:format>image/svg+xml</dc:format><dc:type
           rdf:resource="http://purl.org/dc/dcmitype/StillImage" /><dc:title></dc:title></cc:Work></rdf:RDF></metadata><defs
     id="defs22" /><sodipodi:namedview
     pagecolor="#ffffff"
     bordercolor="#666666"
     borderopacity="1"
     objecttolerance="10"
     gridtolerance="10"
     guidetolerance="10"
     inkscape:pageopacity="0"
     inkscape:pageshadow="2"
     inkscape:window-width="685"
     inkscape:window-height="480"
     id="namedview20"
     showgrid="false"
     fit-margin-top="0"
     fit-margin-left="0"
     fit-margin-right="0"
     fit-margin-bottom="0"
     inkscape:zoom="3.776"
     inkscape:cx="35.988858"
     inkscape:cy="14.25"
     inkscape:window-x="10"
     inkscape:window-y="34"
     inkscape:window-maximized="0"
     inkscape:current-layer="svg2" /><g
     id="g4"
     transform="translate(-1.0531821,-4.4)"><path
       d="m 8.7,30.7 32.5,0 c 0.6,0 1,-0.4 1,-1 l 0,-21.1 c 0,-0.6 -0.4,-1 -1,-1 l -32.5,0 c -0.6,0 -1,0.4 -1,1 l 0,21.1 c 0,0.5 0.5,1 1,1 z m 1,-21.1 30.5,0 0,19.1 -30.5,0 0,-19.1 z"
       id="path6"
       inkscape:connector-curvature="0" /><path
       d="m 48.7,41.1 -2.8,-6.4 c -0.2,-0.5 -0.6,-1 -1.1,-1.3 0.4,-0.5 0.6,-1.1 0.6,-1.8 l 0,-24 C 45.4,5.8 44,4.4 42.2,4.4 L 7.8,4.4 C 6,4.4 4.6,5.9 4.6,7.6 l 0,23.9 c 0,0.7 0.2,1.3 0.6,1.8 -0.5,0.3 -0.8,0.8 -1.1,1.3 L 1.3,41 c -0.4,1 -0.3,2.1 0.2,3 0.6,0.9 1.6,1.5 2.7,1.5 l 41.6,0 c 1.1,0 2.1,-0.5 2.7,-1.5 0.6,-0.8 0.7,-1.9 0.2,-2.9 z M 6.6,7.6 C 6.6,6.9 7.1,6.4 7.8,6.4 l 34.4,0 c 0.7,0 1.2,0.5 1.2,1.2 l 0,23.9 c 0,0.7 -0.5,1.2 -1.2,1.2 l -34.4,0 C 7.1,32.7 6.6,32.2 6.6,31.5 L 6.6,7.6 Z M 46.8,43 c -0.2,0.3 -0.6,0.5 -1,0.5 l -41.6,0 C 3.8,43.5 3.4,43.3 3.2,42.9 3,42.6 2.9,42.1 3.1,41.8 L 5.9,35.4 C 6.1,35 6.6,34.7 7,34.7 c 5.3,0 30.7,0 35.9,0 0.5,0 0.9,0.3 1.1,0.7 l 2.8,6.4 c 0.3,0.5 0.2,0.9 0,1.2 z"
       id="path8"
       inkscape:connector-curvature="0" /><path
       d="m 29.6,39.8 -9.2,0 c -0.6,0 -1,0.4 -1,1 0,0.6 0.4,1 1,1 l 9.2,0 c 0.6,0 1,-0.4 1,-1 0,-0.6 -0.4,-1 -1,-1 z"
       id="path10"
       inkscape:connector-curvature="0" /><path
       d="m 32.6,17 c 0,0 0,0 0,0 L 32.1,16.9 C 32,16.5 31.8,16.1 31.6,15.7 l 0.3,-0.4 c 0.4,-0.5 0.3,-1.3 -0.1,-1.8 l -1.1,-1.1 c -0.5,-0.5 -1.3,-0.5 -1.8,-0.1 l -0.4,0.3 c -0.4,-0.2 -0.8,-0.4 -1.2,-0.5 l -0.1,-0.5 c -0.1,-0.7 -0.7,-1.2 -1.4,-1.2 l -1.5,0 c -0.7,0 -1.3,0.5 -1.4,1.2 L 22.8,12 c -0.4,0.1 -0.9,0.3 -1.2,0.5 l -0.4,-0.3 c -0.6,-0.4 -1.3,-0.4 -1.8,0.1 l -1.1,1.1 c -0.5,0.5 -0.5,1.3 -0.1,1.8 l 0.3,0.4 C 18.3,16 18.1,16.4 18,16.8 L 17.4,17 c -0.7,0.1 -1.2,0.7 -1.2,1.4 l 0,1.5 c 0,0.7 0.5,1.3 1.2,1.4 l 0.5,0.1 c 0.1,0.4 0.3,0.8 0.5,1.2 L 18.1,23 c -0.4,0.6 -0.3,1.3 0.2,1.8 l 1.1,1.1 c 0.5,0.5 1.3,0.5 1.8,0.1 l 0.4,-0.3 c 0.4,0.2 0.8,0.4 1.2,0.5 l 0.1,0.5 c 0.1,0.7 0.7,1.2 1.4,1.2 l 1.5,0 c 0.7,0 1.3,-0.5 1.4,-1.2 l 0.1,-0.5 c 0.4,-0.1 0.8,-0.3 1.2,-0.5 l 0.4,0.3 c 0.6,0.4 1.3,0.3 1.8,-0.1 l 1.1,-1.1 c 0.5,-0.5 0.5,-1.3 0.1,-1.8 l -0.3,-0.4 c 0.2,-0.4 0.4,-0.8 0.5,-1.2 l 0.5,-0.1 c 0.7,-0.1 1.2,-0.7 1.2,-1.4 l 0,-1.5 c 0,-0.7 -0.5,-1.3 -1.2,-1.4 z m -0.8,2.4 -0.4,0.1 c -0.6,0.1 -1,0.5 -1.1,1.1 -0.1,0.5 -0.3,1 -0.6,1.4 -0.3,0.5 -0.3,1.1 0.1,1.5 L 30,23.8 29.6,24.2 29.3,24 c -0.5,-0.3 -1,-0.3 -1.5,0 -0.4,0.3 -0.9,0.5 -1.4,0.6 -0.6,0.1 -1,0.6 -1.1,1.1 l -0.1,0.4 -0.5,0 -0.1,-0.4 C 24.5,25.1 24.1,24.7 23.5,24.6 23,24.5 22.5,24.3 22.1,24 21.6,23.7 21,23.7 20.6,24.1 l -0.3,0.2 -0.3,-0.6 0.2,-0.3 c 0.3,-0.5 0.3,-1 0,-1.5 -0.3,-0.4 -0.5,-0.9 -0.6,-1.4 -0.1,-0.6 -0.6,-1 -1.1,-1.1 l -0.4,-0.1 0,-0.5 0.4,-0.1 c 0.6,-0.1 1,-0.5 1.1,-1.1 0.1,-0.5 0.3,-1 0.6,-1.4 0.3,-0.5 0.3,-1.1 -0.1,-1.5 l -0.1,-0.2 0.4,-0.4 0.3,0.2 c 0.4,0.3 1,0.3 1.6,0.1 0.4,-0.3 0.9,-0.5 1.4,-0.6 0.6,-0.1 1,-0.6 1.1,-1.1 l 0.1,-0.4 0.5,0 0.1,0.4 c 0.1,0.6 0.5,1 1.1,1.1 0.5,0.1 1,0.3 1.4,0.6 0.5,0.3 1.1,0.2 1.5,-0.1 l 0.3,-0.2 0.4,0.4 -0.2,0.3 c -0.3,0.5 -0.3,1 -0.1,1.5 0.3,0.4 0.5,0.9 0.6,1.4 0.1,0.6 0.6,1 1.1,1.1 l 0.4,0.1 0,0.5 z"
       id="path12"
       inkscape:connector-curvature="0" /><path
       d="m 25,14.9 c -2.3,0 -4.2,1.9 -4.2,4.2 0,2.3 1.9,4.2 4.2,4.2 2.3,0 4.2,-1.9 4.2,-4.2 0,-2.3 -1.9,-4.2 -4.2,-4.2 z m 0,6.4 c -1.2,0 -2.2,-1 -2.2,-2.2 0,-1.2 1,-2.2 2.2,-2.2 1.2,0 2.2,1 2.2,2.2 0,1.2 -1,2.2 -2.2,2.2 z"
       id="path14"
       inkscape:connector-curvature="0" /></g></svg>