<?xml version="1.0" encoding="UTF-8" standalone="no"?>
<svg
   xmlns:dc="http://purl.org/dc/elements/1.1/"
   xmlns:cc="http://creativecommons.org/ns#"
   xmlns:rdf="http://www.w3.org/1999/02/22-rdf-syntax-ns#"
   xmlns:svg="http://www.w3.org/2000/svg"
   xmlns="http://www.w3.org/2000/svg"
   xmlns:sodipodi="http://sodipodi.sourceforge.net/DTD/sodipodi-0.dtd"
   xmlns:inkscape="http://www.inkscape.org/namespaces/inkscape"
   version="1.1"
   x="0px"
   y="0px"
   viewBox="0 0 70 90"
   xml:space="preserve"
   id="svg2"
   inkscape:version="0.91 r13725"
   sodipodi:docname="noun_MIDI_1131863.svg"
   width="70"
   height="90"><metadata
     id="metadata40"><rdf:RDF><cc:Work
         rdf:about=""><dc:format>image/svg+xml</dc:format><dc:type
           rdf:resource="http://purl.org/dc/dcmitype/StillImage" /><dc:title></dc:title></cc:Work></rdf:RDF></metadata><defs
     id="defs38" /><sodipodi:namedview
     pagecolor="#ffffff"
     bordercolor="#666666"
     borderopacity="1"
     objecttolerance="10"
     gridtolerance="10"
     guidetolerance="10"
     inkscape:pageopacity="0"
     inkscape:pageshadow="2"
     inkscape:window-width="685"
     inkscape:window-height="480"
     id="namedview36"
     showgrid="false"
     fit-margin-top="0"
     fit-margin-left="0"
     fit-margin-right="0"
     fit-margin-bottom="0"
     inkscape:zoom="1.888"
     inkscape:cx="35"
     inkscape:cy="32.5"
     inkscape:window-x="0"
     inkscape:window-y="24"
     inkscape:window-maximized="0"
     inkscape:current-layer="svg2" /><g
     id="g4"
     transform="translate(-15,-5)"><path
       d="m 83.583,6.417 0,87.165 -67.166,0 0,-67.995 19.17,-19.17 47.996,0 M 85,5 35,5 15,25 l 0,70 70,0 0,-90 0,0 z"
       id="path6"
       inkscape:connector-curvature="0" /></g><g
     id="g8"
     transform="translate(-15,-5)"><path
       d="m 25.593,79.302 3.823,0 0,3.586 -3.823,0 0,-3.586 z"
       id="path10"
       inkscape:connector-curvature="0" /><path
       d="m 31.771,70.003 5.236,0 2.019,7.84 2.005,-7.84 5.233,0 0,12.885 -3.261,0 0,-9.826 -2.512,9.826 -2.951,0 -2.508,-9.826 0,9.826 -3.261,0 0,-12.885 z"
       id="path12"
       inkscape:connector-curvature="0" /><path
       d="m 48.963,70.003 3.99,0 0,12.885 -3.99,0 0,-12.885 z"
       id="path14"
       inkscape:connector-curvature="0" /><path
       d="m 55.862,70.003 5.915,0 c 1.166,0 2.107,0.158 2.825,0.475 0.718,0.317 1.312,0.771 1.78,1.362 0.468,0.591 0.809,1.28 1.02,2.065 0.211,0.785 0.316,1.617 0.316,2.496 0,1.377 -0.157,2.445 -0.47,3.203 -0.314,0.76 -0.749,1.396 -1.306,1.908 -0.557,0.512 -1.154,0.854 -1.793,1.023 -0.873,0.234 -1.664,0.352 -2.373,0.352 l -5.915,0 0,-12.884 z m 3.982,2.918 0,7.04 0.976,0 c 0.832,0 1.424,-0.093 1.775,-0.276 0.352,-0.186 0.627,-0.507 0.826,-0.967 0.199,-0.46 0.299,-1.206 0.299,-2.237 0,-1.365 -0.223,-2.3 -0.668,-2.804 -0.445,-0.504 -1.184,-0.756 -2.215,-0.756 l -0.993,0 z"
       id="path16"
       inkscape:connector-curvature="0" /><path
       d="m 69.969,70.003 3.99,0 0,12.885 -3.99,0 0,-12.885 z"
       id="path18"
       inkscape:connector-curvature="0" /></g><g
     id="g20"
     transform="translate(-15,-5)"><circle
       cx="38.782001"
       cy="54.615002"
       r="5.3850002"
       id="circle22" /><circle
       cx="61.217999"
       cy="51.026001"
       r="5.3850002"
       id="circle24" /><rect
       x="42.372002"
       y="25"
       width="24.231001"
       height="4.487"
       id="rect26" /><rect
       x="42.372002"
       y="29.487"
       width="1.795"
       height="25.128"
       id="rect28" /><rect
       x="64.807999"
       y="29.487"
       width="1.795"
       height="21.538"
       id="rect30" /></g></svg>