<?xml version="1.0" encoding="UTF-8" standalone="no"?>
<svg
   xmlns:dc="http://purl.org/dc/elements/1.1/"
   xmlns:cc="http://creativecommons.org/ns#"
   xmlns:rdf="http://www.w3.org/1999/02/22-rdf-syntax-ns#"
   xmlns:svg="http://www.w3.org/2000/svg"
   xmlns="http://www.w3.org/2000/svg"
   xmlns:sodipodi="http://sodipodi.sourceforge.net/DTD/sodipodi-0.dtd"
   xmlns:inkscape="http://www.inkscape.org/namespaces/inkscape"
   version="1.1"
   x="0px"
   y="0px"
   viewBox="0 0 84.778503 99.452072"
   enable-background="new 0 0 100 100"
   xml:space="preserve"
   id="svg2"
   inkscape:version="0.91 r13725"
   sodipodi:docname="noun_internet_1839227.svg"
   width="84.778503"
   height="99.452072"><metadata
     id="metadata26"><rdf:RDF><cc:Work
         rdf:about=""><dc:format>image/svg+xml</dc:format><dc:type
           rdf:resource="http://purl.org/dc/dcmitype/StillImage" /><dc:title></dc:title></cc:Work></rdf:RDF></metadata><defs
     id="defs24" /><sodipodi:namedview
     pagecolor="#ffffff"
     bordercolor="#666666"
     borderopacity="1"
     objecttolerance="10"
     gridtolerance="10"
     guidetolerance="10"
     inkscape:pageopacity="0"
     inkscape:pageshadow="2"
     inkscape:window-width="685"
     inkscape:window-height="480"
     id="namedview22"
     showgrid="false"
     fit-margin-top="0"
     fit-margin-left="0"
     fit-margin-right="0"
     fit-margin-bottom="0"
     inkscape:zoom="2.36"
     inkscape:cx="42.38925"
     inkscape:cy="37.226"
     inkscape:window-x="0"
     inkscape:window-y="24"
     inkscape:window-maximized="0"
     inkscape:current-layer="svg2" /><path
     d="m 71.01625,98.327069 c 0.028,-0.058 0.053,-0.115 0.075,-0.175 0.023,-0.063 0.044,-0.124 0.062,-0.188 0.016,-0.061 0.027,-0.122 0.038,-0.184 0.011,-0.064 0.02,-0.128 0.023,-0.192 0.005,-0.063 0.005,-0.128 0.003,-0.193 -0.002,-0.064 -0.006,-0.129 -0.015,-0.194 -0.008,-0.061 -0.02,-0.122 -0.033,-0.183 -0.016,-0.07 -0.035,-0.14 -0.058,-0.208 -0.011,-0.029 -0.014,-0.06 -0.025,-0.089 l -25.926,-65.965 c 3.862,-1.187 6.678,-4.787 6.678,-9.033 0,-5.21 -4.238,-9.449 -9.448,-9.449 -5.21,0 -9.45,4.239 -9.45,9.449 0,4.246 2.816,7.845 6.678,9.033 l -25.928,65.963 c -0.012,0.029 -0.015,0.06 -0.025,0.09 -0.023,0.067 -0.042,0.136 -0.058,0.205 -0.014,0.063 -0.025,0.124 -0.033,0.186 -0.008,0.064 -0.012,0.128 -0.014,0.192 -0.002,0.065 -0.002,0.13 0.002,0.195 0.004,0.063 0.013,0.127 0.023,0.19 0.01,0.063 0.022,0.124 0.039,0.185 0.017,0.064 0.038,0.126 0.062,0.188 0.022,0.06 0.046,0.117 0.074,0.174 0.028,0.058 0.06,0.113 0.094,0.169 0.036,0.06 0.075,0.115 0.117,0.171 0.02,0.025 0.034,0.055 0.055,0.08 0.018,0.021 0.041,0.035 0.059,0.056 0.058,0.063 0.12,0.12 0.186,0.176 0.044,0.037 0.088,0.074 0.135,0.107 0.063,0.044 0.13,0.081 0.199,0.118 0.057,0.03 0.112,0.063 0.17,0.087 0.016,0.007 0.029,0.018 0.045,0.023 0.068,0.027 0.138,0.041 0.207,0.06 0.042,0.012 0.083,0.028 0.126,0.037 0.132,0.026 0.266,0.043 0.398,0.043 0.004,0 0.009,-0.002 0.013,-0.002 0.173,-10e-4 0.345,-0.031 0.514,-0.077 0.029,-0.008 0.059,-0.014 0.087,-0.023 0.159,-0.051 0.311,-0.124 0.457,-0.217 0.031,-0.02 0.06,-0.041 0.09,-0.063 0.044,-0.032 0.091,-0.058 0.133,-0.094 l 25.543,-21.662 25.543,21.663 c 0.043,0.036 0.09,0.063 0.135,0.095 0.029,0.021 0.057,0.042 0.087,0.062 0.146,0.093 0.299,0.166 0.458,0.218 0.029,0.009 0.058,0.015 0.087,0.022 0.17,0.046 0.342,0.076 0.516,0.077 0.004,0 0.009,0.002 0.013,0.002 0.132,0 0.265,-0.016 0.397,-0.043 0.043,-0.009 0.084,-0.025 0.126,-0.037 0.069,-0.019 0.139,-0.032 0.207,-0.06 0.016,-0.006 0.029,-0.017 0.045,-0.023 0.059,-0.024 0.113,-0.057 0.17,-0.087 0.068,-0.037 0.137,-0.074 0.199,-0.118 0.047,-0.033 0.09,-0.07 0.134,-0.107 0.066,-0.056 0.13,-0.113 0.188,-0.177 0.019,-0.02 0.041,-0.034 0.059,-0.055 0.021,-0.025 0.035,-0.054 0.055,-0.079 0.043,-0.056 0.082,-0.112 0.118,-0.172 0.032,-0.055 0.064,-0.11 0.091,-0.167 z m -17.594,-35.616 -11.034,9.357 -11.033,-9.357 11.034,-28.071 11.033,28.071 z m -16.482,-40.988 c 0,-3.005 2.445,-5.449 5.45,-5.449 3.004,0 5.448,2.444 5.448,5.449 0,3.005 -2.444,5.449 -5.448,5.449 -3.005,0 -5.45,-2.444 -5.45,-5.449 z m -16.619,69.061 9.488,-24.139 9.487,8.046 -18.975,16.093 z m 34.647,-24.139 9.487,24.139 -18.974,-16.093 9.487,-8.046 z"
     id="path4"
     inkscape:connector-curvature="0" /><path
     d="m 25.90025,29.978069 c 0.459,0 0.921,-0.157 1.298,-0.479 0.84,-0.717 0.939,-1.979 0.222,-2.82 -2.452,-2.872 -2.452,-7.041 0,-9.911 0.718,-0.84 0.618,-2.102 -0.222,-2.819 -0.839,-0.718 -2.102,-0.618 -2.819,0.222 -3.738,4.375 -3.738,10.729 0,15.106 0.394,0.463 0.956,0.701 1.521,0.701 z"
     id="path6"
     inkscape:connector-curvature="0" /><path
     d="m 16.09025,37.615069 c 0.396,0.463 0.957,0.701 1.522,0.701 0.459,0 0.921,-0.157 1.298,-0.479 0.84,-0.717 0.939,-1.98 0.222,-2.82 -6.579,-7.704 -6.579,-18.885 0,-26.5869999 0.717,-0.84 0.618,-2.102 -0.222,-2.82 -0.839,-0.718 -2.101,-0.618 -2.82,0.222 -7.864,9.2069999 -7.864,22.5739999 0,31.7829999 z"
     id="path8"
     inkscape:connector-curvature="0" /><path
     d="m 10.84425,3.2990691 c 0.717,-0.84 0.618,-2.103 -0.222,-2.82000003 -0.84,-0.717 -2.103,-0.618 -2.82,0.222 -10.403,12.18099993 -10.403,29.86299993 0,42.04299993 0.396,0.463 0.957,0.701 1.522,0.701 0.459,0 0.921,-0.157 1.298,-0.479 0.84,-0.718 0.939,-1.98 0.222,-2.82 -9.118,-10.674 -9.118,-26.171 0,-36.8469999 z"
     id="path10"
     inkscape:connector-curvature="0" /><path
     d="m 57.58025,29.499069 c 0.377,0.322 0.839,0.479 1.298,0.479 0.564,0 1.126,-0.238 1.521,-0.701 3.738,-4.377 3.738,-10.73 0,-15.106 -0.717,-0.84 -1.979,-0.939 -2.819,-0.222 -0.84,0.718 -0.939,1.98 -0.222,2.82 2.452,2.871 2.452,7.04 0,9.911 -0.717,0.839 -0.617,2.102 0.222,2.819 z"
     id="path12"
     inkscape:connector-curvature="0" /><path
     d="m 65.86825,37.837069 c 0.377,0.322 0.839,0.479 1.298,0.479 0.564,0 1.126,-0.238 1.521,-0.701 7.865,-9.208 7.865,-22.574 0,-31.7819999 -0.718,-0.84 -1.979,-0.939 -2.819,-0.222 -0.84,0.718 -0.939,1.98 -0.222,2.82 6.579,7.7029999 6.579,18.8839999 0,26.5869999 -0.717,0.839 -0.617,2.101 0.222,2.819 z"
     id="path14"
     inkscape:connector-curvature="0" /><path
     d="m 76.97625,0.70206907 c -0.718,-0.84 -1.979,-0.94 -2.819,-0.222 -0.84,0.71700003 -0.939,1.98000003 -0.222,2.82000003 9.117,10.6759999 9.117,26.1719999 0,36.8479999 -0.718,0.84 -0.618,2.102 0.222,2.82 0.377,0.322 0.839,0.479 1.298,0.479 0.564,0 1.126,-0.238 1.521,-0.701 10.403,-12.182 10.403,-29.863 0,-42.04399993 z"
     id="path16"
     inkscape:connector-curvature="0" /></svg>